# xmcd
#
# Track frame offsets:
#	150
#	14317
#	27175
#	42587
#	56542
#	75922
#	90015
#	104532
#	122265
#	134487
#	150177
#	168180
#
# Disc length: 2379 seconds
#
# Revision: 1
# Processed by: cddbd v1.5.2PL0 Copyright (c) Steve Scherf et al.
# Submitted via: audiograbber 1.83.01
#
DISCID=7b09490c
DTITLE=Nashville Music Company - Brennende Brücken
DYEAR=1999
DGENRE=Country
TTITLE0=Piloten unserer Liebe
TTITLE1=Wir stehn im Stau
TTITLE2=Weil ich es liebe
TTITLE3=Kaum zu glauben aber wahr
TTITLE4=Mach das Radio an
TTITLE5=Geld
TTITLE6=Du bist meine stärkste Schwäche
TTITLE7=Brennende Brücken
TTITLE8=Es gibt keine Kur gegen dich
TTITLE9=Immer
TTITLE10=Unten am Fluss
TTITLE11=Du bist mir im Blut
EXTD=
EXTT0=
EXTT1=
EXTT2=
EXTT3=
EXTT4=
EXTT5=
EXTT6=
EXTT7=
EXTT8=
EXTT9=
EXTT10=
EXTT11=
PLAYORDER=
